<svg id="Layer_4" data-name="Layer 4" xmlns="http://www.w3.org/2000/svg" viewBox="0 0 4.22 4.8"><defs><style>.cls-1{fill:#fff;fill-rule:evenodd;}</style></defs><title>Account</title><path class="cls-1" d="M512.8,482.18v.1a.14.14,0,0,0,.12.12h4a.13.13,0,0,0,.12-.12,1.89,1.89,0,0,0-.53-1.33l-.24-.2a2.7,2.7,0,0,0-2.53-.09,1.87,1.87,0,0,0-.74.81A1.73,1.73,0,0,0,512.8,482.18Z" transform="translate(-512.8 -477.6)"/><path class="cls-1" d="M513.65,478.8a1.23,1.23,0,0,0,.17.71,1,1,0,0,0,.16.21,1.13,1.13,0,0,0,.29.24,1.28,1.28,0,0,0,1.38-.06l.08-.07.08-.07.07-.08a1.26,1.26,0,0,0-.91-2.08h-.13A1.27,1.27,0,0,0,513.65,478.8Z" transform="translate(-512.8 -477.6)"/></svg>