<svg id="Layer_1" data-name="Layer 1" xmlns="http://www.w3.org/2000/svg" viewBox="0 0 162.47 186.51"><defs><style>.cls-1{fill:#01a601;}.cls-1,.cls-2{fill-rule:evenodd;}.cls-2{fill:#fff;}</style></defs><title>Lock_Icons_2</title><path class="cls-1" d="M454,517.86l-22.45,22.45c-.85.84-1.87,2.25-3.44,2.25-2.35,0-2.84-1-4.25-2.39l-15.44-15.45c-1.08-1.07-2.05-2-3.12-3.11a5.71,5.71,0,0,1-2.11-4c0-3.17.89-3.59,2.94-5.64,1.19-1.19,2.51-2.81,4.81-2.81,2.6,0,3.63,1.06,5.3,2.73l3.88,3.88c.68.68,7.13,7.26,7.72,7.66.54-.37,16.74-16.6,26.16-26.06l2.73-2.75,3.69-3.7c1.53-1.53,2.81-3.5,5.78-3.5,2.45,0,3.69,1.54,5,2.81a14.65,14.65,0,0,1,1.88,2,5,5,0,0,1,1.06,2.83c0,2.33-.34,3-2,4.67l-15.4,15.4Z" transform="translate(-346.94 -397.99)"/><path class="cls-2" d="M346.94,572.85c0,5.49,6.16,11.65,11.66,11.65H497.76c5.49,0,11.65-6.16,11.65-11.65v-118H346.94v118Zm45.62-86h62.83a1.36,1.36,0,0,1,1.37,1.36v6.4l3.69-3.7c1.53-1.53,2.81-3.5,5.78-3.5,2.45,0,3.69,1.54,5,2.81a14.65,14.65,0,0,1,1.88,2,5,5,0,0,1,1.06,2.83c0,2.33-.34,3-2,4.67l-15.4,15.4v35.94a1.36,1.36,0,0,1-1.37,1.36H392.56a1.36,1.36,0,0,1-1.37-1.36V488.24a1.36,1.36,0,0,1,1.37-1.36ZM454,489.61v7.78c-9.42,9.46-25.62,25.69-26.16,26.06-.59-.4-7-7-7.72-7.66l-3.88-3.88c-1.67-1.67-2.7-2.73-5.3-2.73-2.3,0-3.62,1.62-4.81,2.81-2.05,2-2.94,2.47-2.94,5.64a5.71,5.71,0,0,0,2.11,4c1.07,1.08,2,2,3.12,3.11l15.44,15.45c1.41,1.4,1.9,2.39,4.25,2.39,1.57,0,2.59-1.41,3.44-2.25L454,517.86V549.7H393.92V489.61Z" transform="translate(-346.94 -397.99)"/><path class="cls-2" d="M350.94,444.25h72.14V398H382.64a10.34,10.34,0,0,0-6.47,3c-2.45,2.39-16.2,27.08-18.19,30.63C357,433.37,351.33,442.63,350.94,444.25Z" transform="translate(-346.94 -397.99)"/><path class="cls-2" d="M433.64,444.25h71.77c-.12-1.41-6.06-11.14-6.85-12.46l-7.23-12.43c-1.45-2.66-9.14-16.38-10.95-18.2-1.41-1.4-4-3.17-6.67-3.17H433.64Z" transform="translate(-346.94 -397.99)"/></svg>