<svg id="Layer_1" data-name="Layer 1" xmlns="http://www.w3.org/2000/svg" viewBox="0 0 24.69 21.6"><defs><style>.cls-1{fill:#fff;}.cls-1,.cls-2{fill-rule:evenodd;}.cls-2{fill:#01a601;}</style></defs><title>MarketPlace_Payment</title><path class="cls-1" d="M568.33,510.27a1.56,1.56,0,0,0,1.4,1.4h21.89a1.57,1.57,0,0,0,1.39-1.26s0-.08,0-.17v-7.83c-.13,0-.12.06-.19.15a10.16,10.16,0,0,1-1.05,1.31l-1.42,1.28c-.72.59-2.51,1.89-3.51,1.89a2.79,2.79,0,0,1-1.5-.53l-1.23-.79a14.47,14.47,0,0,1-2.2-1.85,10,10,0,0,1-1-1.31c-.07-.09-.06-.15-.19-.15H568.33v7.86Zm3.8-4.71h3.18a.76.76,0,0,1,.75.75h0a.75.75,0,0,1-.75.74h-3.18a.75.75,0,0,1-.75-.74h0A.76.76,0,0,1,572.13,505.56Z" transform="translate(-568.33 -490.07)"/><path class="cls-1" d="M580.68,493.06c0,2.77-.29,5.69,1.1,8.1a6.25,6.25,0,0,0,1.2,1.6c.25.28,0,.13.45.47.18.14.29.28.48.43l1.07.82a8.73,8.73,0,0,0,1.77,1h.19a11.84,11.84,0,0,0,2.31-1.41,10.17,10.17,0,0,0,1.9-1.81,8.29,8.29,0,0,0,.75-1.08,9.29,9.29,0,0,0,1.12-4.5v-3.64c0-.55-.84-.79-1.29-1l-3.17-1.35c-2.09-.88-1.34-.88-3.42,0l-1.59.67-2.36,1A.79.79,0,0,0,580.68,493.06Z" transform="translate(-568.33 -490.07)"/><path class="cls-1" d="M568.33,496.1v3.23h11.14c0-.26-.11-.53-.15-.82a24.2,24.2,0,0,1-.19-3.81h-9.4A1.56,1.56,0,0,0,568.33,496.1Z" transform="translate(-568.33 -490.07)"/><path class="cls-2" d="M589.94,494.54a1,1,0,0,1,.78.76.51.51,0,0,1-.19.46c-1.13,1-1.52,1.44-4,4.05-.09.09-.19.23-.35.23s-.28-.1-.42-.24L583.86,498a.58.58,0,0,1-.22-.4,1,1,0,0,1,.78-.84.65.65,0,0,1,.53.27l1.16,1.15C587.32,496.92,589.5,494.54,589.94,494.54Z" transform="translate(-568.33 -490.07)"/></svg>