<svg id="Layer_1" data-name="Layer 1" xmlns="http://www.w3.org/2000/svg" viewBox="0 0 21.6 21.6"><defs><style>.cls-1{fill:#fff;}.cls-1,.cls-2,.cls-3{fill-rule:evenodd;}.cls-2{fill:#1f5da0;}.cls-3{fill:#01a601;}</style></defs><title>MarketPlace_Quality</title><path class="cls-1" d="M526.08,500.2a10.8,10.8,0,1,1-10.8-10.8A10.79,10.79,0,0,1,526.08,500.2Z" transform="translate(-504.48 -489.4)"/><path class="cls-2" d="M512.47,507.8h.06l.28,0a1.43,1.43,0,0,1,.54.18v-.06a5.54,5.54,0,0,0-.27-.78,1.7,1.7,0,0,1,.43.66,2.14,2.14,0,0,1,.1.35,2.43,2.43,0,0,1,.23.24,3.58,3.58,0,0,0-.26-1.43,1.84,1.84,0,0,0-1.32-1.08,7.44,7.44,0,0,1,.22,1C512.49,507.1,512.42,507.41,512.47,507.8Z" transform="translate(-504.48 -489.4)"/><path class="cls-2" d="M512.53,507.92h.27a1.5,1.5,0,0,1,1.05.71l0,.05h0a4.36,4.36,0,0,1-1,.13,2.54,2.54,0,0,1-.57-.1.86.86,0,0,0,.59.27c.29,0,1-.06,1-.06H514l-.13.09a3,3,0,0,1-1.47.36l-.46,0a1.94,1.94,0,0,1-1.39-1.06l0-.06h.06s.66-.08.92-.13l.24-.06A3,3,0,0,1,512.53,507.92Z" transform="translate(-504.48 -489.4)"/><path class="cls-2" d="M513.91,508.5l.21.19-.31.14s.82,0,.86-.11S514.36,508.7,513.91,508.5Z" transform="translate(-504.48 -489.4)"/><path class="cls-2" d="M509.8,506.19l.05,0,.26.11a1.7,1.7,0,0,1,.43.34.07.07,0,0,1,0-.05,6.77,6.77,0,0,0,0-.81,1.73,1.73,0,0,1,.19.76,2.47,2.47,0,0,1,0,.35,1.43,1.43,0,0,1,.13.3,3.39,3.39,0,0,0,.23-1.39,1.82,1.82,0,0,0-.85-1.44,8.28,8.28,0,0,1-.12,1C510.05,505.56,509.88,505.81,509.8,506.19Z" transform="translate(-504.48 -489.4)"/><path class="cls-2" d="M509.82,506.31l.24.11a1.48,1.48,0,0,1,.73,1v.06h-.05a4.14,4.14,0,0,1-1-.23,3,3,0,0,1-.48-.28.81.81,0,0,0,.44.44c.26.11.95.3.95.3l.15.05-.15,0a2.65,2.65,0,0,1-1.45-.17,3,3,0,0,1-.41-.18,1.9,1.9,0,0,1-.93-1.44v-.07l.06,0,.88.2.23,0A2.68,2.68,0,0,1,509.82,506.31Z" transform="translate(-504.48 -489.4)"/><path class="cls-2" d="M510.89,507.31l.13.25-.33,0s.75.28.82.2S511.23,507.65,510.89,507.31Z" transform="translate(-504.48 -489.4)"/><path class="cls-2" d="M507.82,503.75s0,0,0,0a1.8,1.8,0,0,1,.2.19,1.62,1.62,0,0,1,.28.46l0-.05a5.75,5.75,0,0,0,.26-.73,1.72,1.72,0,0,1-.07.75,2.61,2.61,0,0,1-.14.32,1.17,1.17,0,0,1,0,.31,3.24,3.24,0,0,0,.66-1.19,1.81,1.81,0,0,0-.32-1.6,7.37,7.37,0,0,1-.41.83C508.25,503.26,508,503.44,507.82,503.75Z" transform="translate(-504.48 -489.4)"/><path class="cls-2" d="M507.8,503.87l.18.18a1.42,1.42,0,0,1,.34,1.16v.06l-.05,0a4.61,4.61,0,0,1-.8-.53,4.06,4.06,0,0,1-.35-.43.86.86,0,0,0,.27.56c.2.19.77.59.77.59l.12.1-.15,0a2.59,2.59,0,0,1-1.27-.65c-.11-.1-.21-.2-.31-.31a1.85,1.85,0,0,1-.38-1.63v-.06l.05,0s.52.35.74.48l.21.1A3.1,3.1,0,0,1,507.8,503.87Z" transform="translate(-504.48 -489.4)"/><path class="cls-2" d="M508.45,505.15l0,.27-.3-.09s.59.51.68.46S508.65,505.58,508.45,505.15Z" transform="translate(-504.48 -489.4)"/><path class="cls-2" d="M506.89,501.11l0,.05a1.63,1.63,0,0,1,.11.23,1.68,1.68,0,0,1,.11.5l0,0a5.52,5.52,0,0,0,.46-.55,1.57,1.57,0,0,1-.3.64l-.22.23a1.71,1.71,0,0,1-.08.29,3,3,0,0,0,.95-.84,1.7,1.7,0,0,0,.22-1.52,6.17,6.17,0,0,1-.62.6C507.43,500.82,507.16,500.9,506.89,501.11Z" transform="translate(-504.48 -489.4)"/><path class="cls-2" d="M506.83,501.21a1.51,1.51,0,0,1,.11.22,1.35,1.35,0,0,1-.06,1.14l0,0,0,0a3.89,3.89,0,0,1-.54-.73,2.91,2.91,0,0,1-.18-.5.85.85,0,0,0,.06.59c.12.23.5.77.5.78l.07.12-.12-.07a2.5,2.5,0,0,1-.92-1,2.64,2.64,0,0,1-.18-.38,1.8,1.8,0,0,1,.17-1.57l0,0,0,0s.35.49.5.67l.15.16A2.47,2.47,0,0,1,506.83,501.21Z" transform="translate(-504.48 -489.4)"/><path class="cls-2" d="M507,502.55l-.05.26-.24-.18s.37.64.46.63S507.06,503,507,502.55Z" transform="translate(-504.48 -489.4)"/><path class="cls-2" d="M506.94,498.46v.05a1.13,1.13,0,0,1,0,.25,1.52,1.52,0,0,1-.06.5l0,0a5.06,5.06,0,0,0,.6-.35,1.5,1.5,0,0,1-.47.48l-.28.14c-.06.09-.11.17-.16.23a2.68,2.68,0,0,0,1.13-.44,1.63,1.63,0,0,0,.7-1.31,6,6,0,0,1-.77.34A6.72,6.72,0,0,0,506.94,498.46Z" transform="translate(-504.48 -489.4)"/><path class="cls-2" d="M506.85,498.53l0,.24a1.29,1.29,0,0,1-.43,1l0,0v-.05a4.62,4.62,0,0,1-.26-.86,2.78,2.78,0,0,1,0-.5.73.73,0,0,0-.13.55c0,.25.2.87.2.88l0,.14-.09-.11a2.74,2.74,0,0,1-.52-1.22c0-.13,0-.27,0-.4a1.67,1.67,0,0,1,.67-1.37l0,0v0s.17.56.25.78c0,.06.05.12.08.2A2.58,2.58,0,0,1,506.85,498.53Z" transform="translate(-504.48 -489.4)"/><path class="cls-2" d="M506.58,499.82l-.13.22-.16-.25s.13.71.22.73S506.48,500.24,506.58,499.82Z" transform="translate(-504.48 -489.4)"/><path class="cls-2" d="M507.86,496.14v.05l-.06.24a1.34,1.34,0,0,1-.22.43h.05a4.22,4.22,0,0,0,.66-.12,1.51,1.51,0,0,1-.59.28l-.3,0a1.08,1.08,0,0,1-.22.15,2.57,2.57,0,0,0,1.18,0,1.55,1.55,0,0,0,1-1,6.62,6.62,0,0,1-.8,0C508.41,496.26,508.18,496.16,507.86,496.14Z" transform="translate(-504.48 -489.4)"/><path class="cls-2" d="M507.76,496.18l-.06.22a1.26,1.26,0,0,1-.71.79h-.05v-.05a4.52,4.52,0,0,1,.05-.87,2.3,2.3,0,0,1,.16-.46.7.7,0,0,0-.3.46c-.05.24-.1.86-.1.87l0,.13-.05-.13a2.51,2.51,0,0,1-.08-1.29,3,3,0,0,1,.09-.38,1.59,1.59,0,0,1,1.05-1h.05v.05s0,.57,0,.8a1.83,1.83,0,0,0,0,.21A3.05,3.05,0,0,1,507.76,496.18Z" transform="translate(-504.48 -489.4)"/><path class="cls-2" d="M507.09,497.26l-.18.15-.07-.28s-.11.69,0,.74S506.87,497.61,507.09,497.26Z" transform="translate(-504.48 -489.4)"/><path class="cls-2" d="M509.53,494.12l0,.05a1.37,1.37,0,0,1-.13.2,1.29,1.29,0,0,1-.35.32l.05,0a3.57,3.57,0,0,0,.66.12,1.41,1.41,0,0,1-.65.06l-.29-.08a1.13,1.13,0,0,1-.26.07,2.66,2.66,0,0,0,1.11.41,1.53,1.53,0,0,0,1.31-.53,7.88,7.88,0,0,1-.77-.24A6.64,6.64,0,0,0,509.53,494.12Z" transform="translate(-504.48 -489.4)"/><path class="cls-2" d="M509.42,494.12a1.27,1.27,0,0,1-.13.19,1.17,1.17,0,0,1-.92.49h-.05v-.05a4.78,4.78,0,0,1,.33-.8,2.15,2.15,0,0,1,.31-.38.67.67,0,0,0-.43.32c-.13.21-.39.78-.39.79l-.06.12v-.14a2.53,2.53,0,0,1,.36-1.24,3,3,0,0,1,.21-.33,1.55,1.55,0,0,1,1.32-.59h0l0,0s-.22.53-.29.74l-.06.2A2.22,2.22,0,0,1,509.42,494.12Z" transform="translate(-504.48 -489.4)"/><path class="cls-2" d="M508.44,494.9l-.23.08,0-.29s-.34.62-.29.69S508.11,495.15,508.44,494.9Z" transform="translate(-504.48 -489.4)"/><path class="cls-2" d="M511.64,493.15l0,0a1.24,1.24,0,0,1-.18.14,1.16,1.16,0,0,1-.42.18l0,0a3.83,3.83,0,0,0,.56.34,1.37,1.37,0,0,1-.61-.18l-.24-.17a1,1,0,0,1-.26,0,2.63,2.63,0,0,0,.88.75,1.46,1.46,0,0,0,1.36,0,5.66,5.66,0,0,1-.62-.48C512,493.6,511.87,493.37,511.64,493.15Z" transform="translate(-504.48 -489.4)"/><path class="cls-2" d="M511.55,493.11l-.18.13a1.12,1.12,0,0,1-1,.13l-.05,0,0,0a3.46,3.46,0,0,1,.56-.61,2.5,2.5,0,0,1,.4-.25.72.72,0,0,0-.5.15c-.18.15-.6.58-.6.58l-.1.09,0-.13a2.47,2.47,0,0,1,.73-1l.29-.23a1.53,1.53,0,0,1,1.4-.09l0,0,0,0s-.37.4-.5.58a1.11,1.11,0,0,0-.12.16A2.72,2.72,0,0,1,511.55,493.11Z" transform="translate(-504.48 -489.4)"/><path class="cls-2" d="M510.4,493.49h-.23l.12-.26s-.5.44-.48.53S510,493.6,510.4,493.49Z" transform="translate(-504.48 -489.4)"/><path class="cls-2" d="M518.1,507.8H518l-.29,0a1.38,1.38,0,0,0-.53.18s0,0,0-.06a5.54,5.54,0,0,1,.27-.78,1.79,1.79,0,0,0-.44.66c0,.09-.06.22-.1.35a2.19,2.19,0,0,0-.22.24A3.37,3.37,0,0,1,517,507a1.85,1.85,0,0,1,1.32-1.08,9.65,9.65,0,0,0-.22,1A9,9,0,0,1,518.1,507.8Z" transform="translate(-504.48 -489.4)"/><path class="cls-2" d="M518,507.92a3.11,3.11,0,0,1,.77.12l.24.06c.26,0,.91.13.92.13H520l0,.06a1.91,1.91,0,0,1-1.39,1.06l-.45,0a2.92,2.92,0,0,1-1.47-.36l-.14-.09h.16s.74.07,1,.06a.84.84,0,0,0,.58-.27,2.36,2.36,0,0,1-.57.1,4.16,4.16,0,0,1-1-.13h-.06l0-.05a1.44,1.44,0,0,1,1-.71Z" transform="translate(-504.48 -489.4)"/><path class="cls-2" d="M516.66,508.5l-.22.19.31.14s-.82,0-.85-.11S516.21,508.7,516.66,508.5Z" transform="translate(-504.48 -489.4)"/><path class="cls-2" d="M520.77,506.19l-.06,0-.25.11a1.7,1.7,0,0,0-.43.34.11.11,0,0,1,0-.05,5.58,5.58,0,0,1,0-.81,1.8,1.8,0,0,0-.18.76c0,.09,0,.22,0,.35a2.27,2.27,0,0,0-.13.3,3.57,3.57,0,0,1-.23-1.39,1.85,1.85,0,0,1,.86-1.44,7.66,7.66,0,0,0,.11,1A7.45,7.45,0,0,1,520.77,506.19Z" transform="translate(-504.48 -489.4)"/><path class="cls-2" d="M520.75,506.31a2.62,2.62,0,0,1,.74-.15l.24,0,.88-.2.06,0V506a1.9,1.9,0,0,1-.93,1.44,2.87,2.87,0,0,1-.4.18,2.65,2.65,0,0,1-1.45.17l-.16,0,.15-.05s.69-.19,1-.3a.87.87,0,0,0,.45-.44,3,3,0,0,1-.48.28,4.38,4.38,0,0,1-1,.23h-.06v-.06a1.44,1.44,0,0,1,.73-1Z" transform="translate(-504.48 -489.4)"/><path class="cls-2" d="M519.68,507.31l-.14.25.33,0s-.75.28-.81.2S519.33,507.65,519.68,507.31Z" transform="translate(-504.48 -489.4)"/><path class="cls-2" d="M522.75,503.75l0,0a1.7,1.7,0,0,0-.19.19,1.46,1.46,0,0,0-.29.46l0-.05a4.46,4.46,0,0,1-.26-.73,1.72,1.72,0,0,0,.07.75,2.61,2.61,0,0,0,.14.32,2,2,0,0,0,0,.31,3.24,3.24,0,0,1-.65-1.19,1.82,1.82,0,0,1,.31-1.6,7.37,7.37,0,0,0,.41.83A8.44,8.44,0,0,1,522.75,503.75Z" transform="translate(-504.48 -489.4)"/><path class="cls-2" d="M522.77,503.87a2.85,2.85,0,0,1,.63-.39l.2-.1c.22-.13.74-.48.74-.48l0,0,0,.06a1.88,1.88,0,0,1-.38,1.63l-.31.31a2.68,2.68,0,0,1-1.27.65l-.15,0,.12-.1s.56-.4.77-.59a.84.84,0,0,0,.26-.56,3.11,3.11,0,0,1-.35.43,4.61,4.61,0,0,1-.8.53l0,0v-.06a1.46,1.46,0,0,1,.34-1.16Z" transform="translate(-504.48 -489.4)"/><path class="cls-2" d="M522.12,505.15l0,.27.31-.09s-.6.51-.68.46S521.91,505.58,522.12,505.15Z" transform="translate(-504.48 -489.4)"/><path class="cls-2" d="M523.67,501.11l0,.05c0,.07-.07.15-.11.23a1.39,1.39,0,0,0-.1.5l0,0a4.35,4.35,0,0,1-.46-.55,1.63,1.63,0,0,0,.29.64l.23.23c0,.11,0,.21.07.29a3.25,3.25,0,0,1-.95-.84,1.73,1.73,0,0,1-.22-1.52,7.55,7.55,0,0,0,.62.6A8,8,0,0,1,523.67,501.11Z" transform="translate(-504.48 -489.4)"/><path class="cls-2" d="M523.73,501.21a2.48,2.48,0,0,1,.44-.56l.15-.16c.15-.18.5-.66.5-.67l0,0,0,0a1.78,1.78,0,0,1,.18,1.57l-.18.38a2.66,2.66,0,0,1-.92,1l-.13.07.08-.12s.37-.55.49-.78a.79.79,0,0,0,.06-.59,2.92,2.92,0,0,1-.17.5,4.41,4.41,0,0,1-.54.73l0,0,0,0a1.4,1.4,0,0,1-.06-1.14A1.51,1.51,0,0,1,523.73,501.21Z" transform="translate(-504.48 -489.4)"/><path class="cls-2" d="M523.55,502.55l.05.26.24-.18s-.37.64-.46.63S523.51,503,523.55,502.55Z" transform="translate(-504.48 -489.4)"/><path class="cls-2" d="M523.63,498.46v.05l0,.25a1.29,1.29,0,0,0,.07.5l0,0a6.13,6.13,0,0,1-.6-.35,1.6,1.6,0,0,0,.48.48l.28.14a1.52,1.52,0,0,0,.16.23,2.76,2.76,0,0,1-1.14-.44,1.64,1.64,0,0,1-.69-1.31,6.32,6.32,0,0,0,.76.34A7.23,7.23,0,0,1,523.63,498.46Z" transform="translate(-504.48 -489.4)"/><path class="cls-2" d="M523.71,498.53a2.56,2.56,0,0,1,.23-.65l.08-.2c.08-.22.24-.78.24-.78l0,0,0,0a1.67,1.67,0,0,1,.66,1.37,2.71,2.71,0,0,1,0,.4,2.51,2.51,0,0,1-.52,1.22l-.09.11,0-.14s.17-.63.2-.88a.78.78,0,0,0-.13-.55,2.73,2.73,0,0,1,0,.5,4.12,4.12,0,0,1-.25.86l0,.05,0,0a1.3,1.3,0,0,1-.42-1A1.94,1.94,0,0,1,523.71,498.53Z" transform="translate(-504.48 -489.4)"/><path class="cls-2" d="M524,499.82l.12.22.16-.25s-.12.71-.21.73S524.09,500.24,524,499.82Z" transform="translate(-504.48 -489.4)"/><path class="cls-2" d="M522.71,496.14v.05a2,2,0,0,0,0,.24,1.92,1.92,0,0,0,.22.43h0a4.49,4.49,0,0,1-.66-.12,1.51,1.51,0,0,0,.59.28l.3,0a1.08,1.08,0,0,0,.22.15,2.52,2.52,0,0,1-1.17,0,1.58,1.58,0,0,1-1.06-1,6.69,6.69,0,0,0,.81,0C522.16,496.26,522.39,496.16,522.71,496.14Z" transform="translate(-504.48 -489.4)"/><path class="cls-2" d="M522.81,496.18a2.17,2.17,0,0,1,0-.67,1.62,1.62,0,0,0,0-.21c0-.23,0-.79,0-.8v-.05h.05a1.61,1.61,0,0,1,1,1c0,.13.06.26.08.38a2.58,2.58,0,0,1-.07,1.29l0,.13,0-.13s-.05-.63-.1-.87a.79.79,0,0,0-.3-.46,2.3,2.3,0,0,1,.16.46,3.58,3.58,0,0,1,0,.87v.05h0a1.24,1.24,0,0,1-.72-.79A1.74,1.74,0,0,1,522.81,496.18Z" transform="translate(-504.48 -489.4)"/><path class="cls-2" d="M523.47,497.26l.19.15.06-.28s.12.69,0,.74S523.7,497.61,523.47,497.26Z" transform="translate(-504.48 -489.4)"/><path class="cls-2" d="M521,494.12s0,0,0,.05a1.43,1.43,0,0,0,.14.2,1.13,1.13,0,0,0,.34.32l0,0a3.71,3.71,0,0,1-.66.12,1.38,1.38,0,0,0,.64.06l.29-.08a1.08,1.08,0,0,0,.27.07,2.78,2.78,0,0,1-1.11.41,1.53,1.53,0,0,1-1.31-.53s.56-.15.77-.24A5.61,5.61,0,0,1,521,494.12Z" transform="translate(-504.48 -489.4)"/><path class="cls-2" d="M521.15,494.12a2.65,2.65,0,0,1-.24-.63c0-.07,0-.14,0-.2-.08-.21-.3-.73-.3-.74l0,0h.05a1.57,1.57,0,0,1,1.33.59l.21.33a2.58,2.58,0,0,1,.35,1.24v.14l-.07-.12a8.07,8.07,0,0,0-.38-.79.71.71,0,0,0-.43-.32,2.08,2.08,0,0,1,.3.38,4,4,0,0,1,.33.8l0,.05h0a1.18,1.18,0,0,1-.93-.49A.76.76,0,0,1,521.15,494.12Z" transform="translate(-504.48 -489.4)"/><path class="cls-2" d="M522.13,494.9l.22.08,0-.29s.34.62.28.69S522.46,495.15,522.13,494.9Z" transform="translate(-504.48 -489.4)"/><path class="cls-2" d="M518.92,493.15l0,0a1.33,1.33,0,0,0,.19.14,1.09,1.09,0,0,0,.42.18l0,0a3.83,3.83,0,0,1-.56.34,1.35,1.35,0,0,0,.6-.18,1.54,1.54,0,0,0,.24-.17,1.06,1.06,0,0,0,.27,0,2.63,2.63,0,0,1-.88.75,1.47,1.47,0,0,1-1.37,0,6.6,6.6,0,0,0,.63-.48C518.59,493.6,518.69,493.37,518.92,493.15Z" transform="translate(-504.48 -489.4)"/><path class="cls-2" d="M519,493.11a2.35,2.35,0,0,1-.41-.49c-.05-.06-.08-.12-.12-.16s-.5-.57-.51-.58l0,0,0,0a1.53,1.53,0,0,1,1.4.09,2.77,2.77,0,0,1,1,1.23l0,.13-.1-.09s-.41-.43-.6-.58a.69.69,0,0,0-.49-.15,3.89,3.89,0,0,1,.4.25,3.7,3.7,0,0,1,.55.61l0,0,0,0a1.12,1.12,0,0,1-1-.13A.83.83,0,0,1,519,493.11Z" transform="translate(-504.48 -489.4)"/><path class="cls-2" d="M520.16,493.49h.24l-.13-.26s.51.44.48.53S520.55,493.6,520.16,493.49Z" transform="translate(-504.48 -489.4)"/><polygon class="cls-3" points="10.8 2.83 11.1 3.74 12.06 3.74 11.28 4.31 11.58 5.23 10.8 4.66 10.02 5.23 10.32 4.31 9.54 3.74 10.5 3.74 10.8 2.83"/><polygon class="cls-3" points="10.8 15.63 11.1 16.55 12.06 16.55 11.28 17.11 11.58 18.03 10.8 17.46 10.02 18.03 10.32 17.11 9.54 16.55 10.5 16.55 10.8 15.63"/><path class="cls-3" d="M510.88,497.16l.07,0a.5.5,0,0,1,.42.08.58.58,0,0,1,.13.22l0,.08a10.94,10.94,0,0,1,.08,2.38,5.88,5.88,0,0,0,.13,1.49v0l.09.21s0,.06-.07.08c-.22,0-.35,0-.4-.21s0-.1-.05-.11a6.27,6.27,0,0,1-.14-1.59l-.12,0h0a3,3,0,0,0-.83.45,5.91,5.91,0,0,0-.08,2.22l.08.15v0l0,.06-.05,0a.36.36,0,0,1-.35-.11.51.51,0,0,1-.07-.15,5,5,0,0,1,0-1.82,2.35,2.35,0,0,0-.5.55l-.05,0a.44.44,0,0,1-.28,0s-.07-.06-.07-.08h0c0-.07.1-.22.35-.46a7.32,7.32,0,0,1,.64-.54,11.22,11.22,0,0,1,.59-2.23c.2-.44.37-.68.52-.72Zm-.6,2.64h0a2.2,2.2,0,0,1,.43-.18,1.3,1.3,0,0,1,.44-.06c0-.39,0-.88,0-1.46a1.77,1.77,0,0,0,0-.53l0-.06a0,0,0,0,0-.06,0c-.11.06-.25.34-.43.85A11.43,11.43,0,0,0,510.28,499.8Z" transform="translate(-504.48 -489.4)"/><path class="cls-3" d="M512.63,498.9h0a.25.25,0,0,1,.22.05,6,6,0,0,0,.07,1.14h0a1.44,1.44,0,0,0,.15-.39c0-.11.09-.26.14-.45,0,0,0,0,0,0h0l.06,0v0a2.42,2.42,0,0,1-.14.59q-.13.36-.24.39h0c-.19,0-.3,0-.34-.18-.11.24-.2.37-.28.39h0a.31.31,0,0,1-.4-.15l0-.06,0-.08a3.33,3.33,0,0,1,0-1,.19.19,0,0,1,.11-.08q.22,0,.24.06a4.63,4.63,0,0,0,0,1,.51.51,0,0,0,0,.09h0l0,0a3.34,3.34,0,0,0,.28-1.15C512.55,499,512.58,498.91,512.63,498.9Z" transform="translate(-504.48 -489.4)"/><path class="cls-3" d="M513.31,497.35h0a.25.25,0,0,1,.21,0l0,0s0,.09,0,.27h0l.4-.12a1.45,1.45,0,0,1,.79-.07v0h0a.16.16,0,0,1-.07.1.23.23,0,0,1-.13.08h-.12a.78.78,0,0,0-.21,0h-.05a5.49,5.49,0,0,0-.64.22,7.4,7.4,0,0,0,.15,2v0c0,.09.06.15.1.17s.09,0,.09.06,0,.08-.1.09h0a.27.27,0,0,1-.3-.12,1,1,0,0,1-.14-.33,6.86,6.86,0,0,1-.13-1.73h0a4.38,4.38,0,0,0-.63.33c-.06,0-.14,0-.24-.11a.09.09,0,0,1,0,0h0s0,0,.09-.08a5,5,0,0,1,.75-.37s.07,0,.07,0a2.19,2.19,0,0,1,0-.39A.15.15,0,0,1,513.31,497.35Z" transform="translate(-504.48 -489.4)"/><path class="cls-3" d="M514,497.29h0a.26.26,0,0,1,.23.05l0,0a2.83,2.83,0,0,0-.06.37,9.8,9.8,0,0,0,0,1.37v.1h0a2.57,2.57,0,0,1,.16-.52c.12-.26.24-.41.36-.44h.2a.17.17,0,0,1,.1.12v0c0,.05,0,.32.06.8q0,.18,0,.27a.13.13,0,0,0,0,.09,2.11,2.11,0,0,0,.12-.28c.07-.21.15-.42.24-.64a.15.15,0,0,1,.07-.07h0s0,0,0,0v0a1.92,1.92,0,0,1-.08.24c-.11.29-.2.53-.28.72s-.13.21-.21.23a.41.41,0,0,1-.2,0,.63.63,0,0,1-.15-.32,6.33,6.33,0,0,1-.09-.91h0a1.36,1.36,0,0,0-.21.42,3.26,3.26,0,0,0-.1.46c0,.1,0,.27,0,.5a.15.15,0,0,1-.12.12h0a.28.28,0,0,1-.2,0h0l0-.06a8.23,8.23,0,0,1-.14-1.81c0-.21,0-.44.06-.67s0-.13.09-.14Z" transform="translate(-504.48 -489.4)"/><path class="cls-3" d="M515.93,498h0a.35.35,0,0,1,.28.05.34.34,0,0,1,.11.17.64.64,0,0,1-.08.5.93.93,0,0,1-.16.18.78.78,0,0,1-.15.1l-.1,0v.07c0,.13.09.2.16.22h.05c.11,0,.26-.25.44-.64,0-.13.09-.23.12-.32a.17.17,0,0,1,.11-.1h0s0,0,0,0h0s0,.05,0,.11a3.45,3.45,0,0,1-.17.47,1.58,1.58,0,0,1-.13.27.81.81,0,0,1-.42.41h0a.44.44,0,0,1-.4-.15.66.66,0,0,1-.13-.25v0a1.08,1.08,0,0,1,.06-.7.6.6,0,0,1,.38-.41Zm-.09.85h0a.3.3,0,0,0,.24-.29.47.47,0,0,0,0-.17c0-.09-.06-.13-.09-.13h0s-.1.19-.15.53Z" transform="translate(-504.48 -489.4)"/><path class="cls-3" d="M517.45,497.55h0a.22.22,0,0,1,.18,0l0,.05a4,4,0,0,1,0,.7,3.32,3.32,0,0,0,0,.48h0a.35.35,0,0,0,.07-.14c.13-.37.23-.64.29-.79a.13.13,0,0,1,.08-.07s.07,0,.07,0h0a1.52,1.52,0,0,1-.09.26c-.11.32-.19.55-.25.71s-.11.18-.17.19h0a.24.24,0,0,1-.22-.08.66.66,0,0,1-.09-.19l0-.05a4,4,0,0,1,0-.73h0a10.17,10.17,0,0,0-.31,1,1.19,1.19,0,0,1-.06.22l0,0a.2.2,0,0,1-.23,0l0,0v0a4.89,4.89,0,0,1-.05-.64c0-.25,0-.42,0-.5a.15.15,0,0,1,.11-.07.26.26,0,0,1,.23,0v0h0v.38h0a3.36,3.36,0,0,1,.17-.47C517.25,497.67,517.35,497.57,517.45,497.55Z" transform="translate(-504.48 -489.4)"/><path class="cls-3" d="M518.21,496h0a.27.27,0,0,1,.21,0v0s0,.1,0,.28h0a3.49,3.49,0,0,1,.39-.13,1.46,1.46,0,0,1,.8-.06h0s0,.06-.06.11a.34.34,0,0,1-.14.08h-.11l-.22,0,0,0a4.46,4.46,0,0,0-.64.22,8.2,8.2,0,0,0,.15,2v0c0,.1.06.15.1.17s.09,0,.1.06,0,.08-.1.1h0a.27.27,0,0,1-.3-.13,1.06,1.06,0,0,1-.14-.32,7.42,7.42,0,0,1-.13-1.74h0a5.82,5.82,0,0,0-.63.33c-.05,0-.13,0-.24-.11l0,0h0s0-.05.09-.08a5.62,5.62,0,0,1,.76-.38s.07,0,.06,0a1.93,1.93,0,0,1,0-.39A.15.15,0,0,1,518.21,496Z" transform="translate(-504.48 -489.4)"/><path class="cls-3" d="M518.9,497.31h0a.25.25,0,0,1,.22,0l0,0h0a2.87,2.87,0,0,0,0,.81,1.13,1.13,0,0,0,.08.22.92.92,0,0,0,.3-.54c0-.1.06-.24.1-.42a.11.11,0,0,1,.08-.07h0s.06,0,.07,0v0a4,4,0,0,1-.19.69c-.12.28-.24.43-.39.46h0a.37.37,0,0,1-.28-.08.58.58,0,0,1-.15-.28v-.06a2.47,2.47,0,0,1,0-.79.14.14,0,0,1,.11-.07Zm.05-.61a.21.21,0,0,1,.23.1l0,.06a.19.19,0,0,1-.1.22l-.07,0a.21.21,0,0,1-.24-.11v-.06c0-.09,0-.16.14-.22Z" transform="translate(-504.48 -489.4)"/><path class="cls-3" d="M520.19,496.85l.07,0c.16,0,.26,0,.29.11s0,.2,0,.38,0,.11-.11.14-.2,0-.24,0h0v-.22h0a1.15,1.15,0,0,0-.16.4.89.89,0,0,0,0,.4v0c.05.13.11.2.19.21h0q.26-.06.63-1.08a.19.19,0,0,1,.07-.06h0s0,0,.06,0v0s-.07.21-.22.58-.36.61-.55.66h0a.44.44,0,0,1-.49-.15.51.51,0,0,1-.09-.18v0a1.22,1.22,0,0,1,.12-.76A.72.72,0,0,1,520.19,496.85Z" transform="translate(-504.48 -489.4)"/><path class="cls-2" d="M513.12,501.46h.47a.48.48,0,0,1,.48.48v.31a.49.49,0,0,1-.14.34.48.48,0,0,1-.34.14h-.15v.95h-.32v-2.22Zm.44,1h0a.2.2,0,0,0,.14-.06.19.19,0,0,0,0-.13V502a.17.17,0,0,0-.19-.19h-.12v.63Z" transform="translate(-504.48 -489.4)"/><path class="cls-2" d="M515.19,502.41h0a.49.49,0,0,1-.23.26l0,.06.08.31.08.32.07.32h-.31l-.08-.32-.08-.32-.08-.31h-.08v.95h-.31v-2.22h.47a.45.45,0,0,1,.16,0,.48.48,0,0,1,.23.17.44.44,0,0,1,.08.28v.31a.41.41,0,0,1,0,.16Zm-.61,0h.13a.21.21,0,0,0,.13-.05.18.18,0,0,0,.06-.14h0V502h0a.18.18,0,0,0-.06-.13.21.21,0,0,0-.13-.05h-.13Z" transform="translate(-504.48 -489.4)"/><path class="cls-2" d="M516,501.49h0a.44.44,0,0,1,.23.17.45.45,0,0,1,.09.28v1.26a.48.48,0,0,1-.14.34.52.52,0,0,1-.34.14.4.4,0,0,1-.15,0,.44.44,0,0,1-.23-.17.45.45,0,0,1-.09-.28v-1.26a.46.46,0,0,1,.14-.34.42.42,0,0,1,.18-.11l.15,0a.41.41,0,0,1,.16,0Zm0,1.71h0v-1.26a.14.14,0,0,0-.16-.16.15.15,0,0,0-.11,0,.17.17,0,0,0,0,.12v1.26a.14.14,0,0,0,0,.11.16.16,0,0,0,.11.05.17.17,0,0,0,.12-.05A.14.14,0,0,0,516,503.2Z" transform="translate(-504.48 -489.4)"/><path class="cls-2" d="M516.56,501.46H517a.45.45,0,0,1,.33.14.44.44,0,0,1,.13.32v1.29a.44.44,0,0,1-.13.33.45.45,0,0,1-.33.14h-.48v-2.22Zm.44,1.9h0a.19.19,0,0,0,.13-.05.18.18,0,0,0,.06-.14V502a.18.18,0,0,0-.06-.13.19.19,0,0,0-.13-.05h-.13v1.58Z" transform="translate(-504.48 -489.4)"/><path class="cls-2" d="M517.7,503.2h0a.48.48,0,0,0,.14.34.45.45,0,0,0,.33.14.46.46,0,0,0,.34-.14.48.48,0,0,0,.14-.34v-1.74h-.32v1.74a.14.14,0,0,1,0,.11.17.17,0,0,1-.12.05.16.16,0,0,1-.11-.05.14.14,0,0,1,0-.11v-1.74h-.32Z" transform="translate(-504.48 -489.4)"/><path class="cls-2" d="M519.79,501.94h0a.45.45,0,0,0-.13-.34.49.49,0,0,0-.34-.14h0a.49.49,0,0,0-.34.14.46.46,0,0,0-.14.34v1.26a.48.48,0,0,0,.14.34.49.49,0,0,0,.34.14h0a.49.49,0,0,0,.34-.14.47.47,0,0,0,.13-.34v-.47h-.31v.47a.14.14,0,0,1-.05.11.16.16,0,0,1-.11.05h0a.16.16,0,0,1-.11-.05.14.14,0,0,1-.05-.11v-1.26a.18.18,0,0,1,.05-.12.15.15,0,0,1,.11,0h0a.15.15,0,0,1,.11,0,.18.18,0,0,1,.05.12v.47h.31Z" transform="translate(-504.48 -489.4)"/><polygon class="cls-2" points="16.46 12.06 16.46 12.06 15.51 12.06 15.51 12.37 15.82 12.37 15.82 14.27 16.14 14.27 16.14 12.37 16.46 12.37 16.46 12.06"/></svg>