<svg id="Layer_1" data-name="Layer 1" xmlns="http://www.w3.org/2000/svg" viewBox="0 0 27.55 21.6"><defs><style>.cls-1{fill:#fff;}.cls-1,.cls-2{fill-rule:evenodd;}.cls-2{fill:#01a601;}</style></defs><title>MarketPlace_Web_Design</title><path class="cls-1" d="M371.48,504.19a3,3,0,0,0-.51.66,1.77,1.77,0,0,0-.25.89,2.31,2.31,0,0,0,.51,1.54,15.27,15.27,0,0,0,1.28,1.3l1.91,1.94c.79.79,1.57,1.58,1.88,1.85.53.47,1.06,1.07,1.58,1.56a2.26,2.26,0,0,0,2.79.63,5.48,5.48,0,0,0,1-.9l4.52-4.52,4.52-4.52c.21-.21.51-.47.77-.76a2.2,2.2,0,0,0,.56-.92c.29,0,1.18.29,2.24.39a4.59,4.59,0,0,0,3.22-.69,1.93,1.93,0,0,0,.57-.65,1.84,1.84,0,0,0,.21-.76v-.3a3.46,3.46,0,0,0-.53-1.54,4.65,4.65,0,0,0-1-1.19,16.77,16.77,0,0,0-1.72-1.27c-.41-.24-.83-.42-1.77-.89l-.24-.12-.25-.09-.27-.11a1.57,1.57,0,0,0-.28-.1,2.19,2.19,0,0,0-.36-1.22,2.61,2.61,0,0,0-.95-.85,1.64,1.64,0,0,0-.43-.15,3.55,3.55,0,0,0-.47-.08c-.81-.09-2.1-.13-3.38-.14s-2.54,0-3.29.08a2.77,2.77,0,0,0-1.51.67,13.08,13.08,0,0,0-1.19,1.14l-9.13,9.12Zm15.74-7.78a1.72,1.72,0,0,1,1.22.51,1.74,1.74,0,0,1,.51,1.22.53.53,0,0,1,0,.13.49.49,0,0,1,0,.12,5.11,5.11,0,0,0,1.15.72,11.73,11.73,0,0,0,2.09.91c0-.19,0-.8,0-1.37a4,4,0,0,1,.06-1.07,9.75,9.75,0,0,1,3.62,2.39c.55.66.6,1.11.56,1.15-.42.46-1.64.54-3.13.24a12.74,12.74,0,0,1-4.74-2.07,1.91,1.91,0,0,1-.58.43,1.72,1.72,0,0,1-.72.15,1.71,1.71,0,0,1-1.73-1.73,1.73,1.73,0,0,1,.5-1.22A1.76,1.76,0,0,1,387.22,496.41Z" transform="translate(-370.72 -493.18)"/><path class="cls-2" d="M381.74,506.56a2.45,2.45,0,0,1-.75.46,2.18,2.18,0,0,1-.85.16,2.63,2.63,0,0,1-.76-.13,1.75,1.75,0,0,1-.64-.41,2,2,0,0,1-.47-.67,1,1,0,0,1,0-.76,1.78,1.78,0,0,1,.25-.38c.1-.12.21-.24.31-.34l.69-.69.69-.69-.16-.16-.17-.17.06-.4L380,502l.35.36.36.35.36-.36.36-.36c.12-.12.13-.23.09-.31a.27.27,0,0,0-.17-.16l-.1,0-.11-.05.15-.32.15-.32a2,2,0,0,1,.48.27,1,1,0,0,1,.32.42.77.77,0,0,1-.07.66,2.27,2.27,0,0,1-.45.57l-.25.26-.26.25.18.18.18.17,0,.42,0,.42-.37-.37-.36-.36-.87.86-.86.86a.41.41,0,0,0,0,.55,1.11,1.11,0,0,0,.49.35,1.37,1.37,0,0,0,.7.06,1.33,1.33,0,0,0,.66-.3.83.83,0,0,1-.32-.38.58.58,0,0,1,0-.48.83.83,0,0,1,.08-.12.64.64,0,0,1,.1-.13h0a.82.82,0,0,1,.58-.27.77.77,0,0,1,.57.26,1,1,0,0,1,.33.83,1.51,1.51,0,0,1-.47.82Z" transform="translate(-370.72 -493.18)"/></svg>