<svg id="Layer_1" data-name="Layer 1" xmlns="http://www.w3.org/2000/svg" viewBox="0 0 21.6 21.6"><defs><style>.cls-1{fill:#01a601;}.cls-1,.cls-2{fill-rule:evenodd;}.cls-2{fill:#fff;}</style></defs><title>MarketPlace_Web_Design</title><path class="cls-1" d="M445.84,504.47a.7.7,0,0,0,.59.6h.8l.09,1.13c0,.17,0,.34,0,.55l.15,1.71c.12.82.18,2.46.28,3.43a1.47,1.47,0,0,0,.36.86,1.41,1.41,0,0,0,.85.42h1.77a1.42,1.42,0,0,0,.84-.4,1.8,1.8,0,0,0,.24-.35,1.63,1.63,0,0,0,.14-.49l.56-6.86h.8a.7.7,0,0,0,.59-.6,6.09,6.09,0,0,0-.09-.88l-.45-3.52c-.07-.48-.07-1.12-.56-1.46s-.86-.29-1.69-.29c-.4,0-.95.8-1.26,1-.32-.21-.86-1-1.27-1-.79,0-1.7-.16-2.09.85C446.44,499.4,445.84,503.84,445.84,504.47Z" transform="translate(-439.09 -491.56)"/><path class="cls-2" d="M454.11,506.2l.33,3.34a5.08,5.08,0,0,0,.26,1.56,1.31,1.31,0,0,0,1.14.72h1.68a1.35,1.35,0,0,0,.75-.32,1.42,1.42,0,0,0,.41-.64,6.55,6.55,0,0,0,.12-.93c.13-1,.18-2,.3-2.91l.2-1.95h.8a.7.7,0,0,0,.59-.6c0-.41-.6-5-.68-5.26-.37-1-1.34-.89-2.11-.89-.4,0-.95.8-1.26,1-.31-.21-.86-1-1.27-1-1.27,0-1.11-.07-.91.36a2.67,2.67,0,0,1,.15.48c.18.88.43,3.36.59,4.48a3.3,3.3,0,0,1,0,1.13,1.8,1.8,0,0,1-.4.86A1.77,1.77,0,0,1,454.11,506.2Z" transform="translate(-439.09 -491.56)"/><path class="cls-2" d="M439.09,504.47a.7.7,0,0,0,.59.6h.8l.61,5.76a1.35,1.35,0,0,0,1.16,1H444a1.35,1.35,0,0,0,1.08-.75,22.06,22.06,0,0,0,.41-3.21c.05-.51.16-1.15.16-1.7a1.78,1.78,0,0,1-1.13-1.4,3.25,3.25,0,0,1,0-1.12c.1-.82.47-4,.58-4.49.2-1,.8-.83-.76-.83-.4,0-.95.8-1.26,1-.32-.21-.86-1-1.27-1-.83,0-1.1-.11-1.66.27s-.57,1.47-.69,2.31c-.09.59-.14,1.16-.23,1.75C439.24,503.05,439.09,504.11,439.09,504.47Z" transform="translate(-439.09 -491.56)"/><path class="cls-2" d="M440.44,494.1A2.7,2.7,0,0,0,443,497a2.67,2.67,0,0,0,2.87-2.87,2.71,2.71,0,0,0-2.53-2.54H443A2.71,2.71,0,0,0,440.44,494.1Z" transform="translate(-439.09 -491.56)"/><path class="cls-2" d="M454.43,495.84a2.66,2.66,0,0,0,2.38,1.13,2.71,2.71,0,0,0,0-5.41h-.34A2.72,2.72,0,0,0,454.43,495.84Z" transform="translate(-439.09 -491.56)"/><path class="cls-1" d="M447.19,494.1a2.67,2.67,0,0,0,2.87,2.87,2.71,2.71,0,0,0,0-5.41h-.34A2.71,2.71,0,0,0,447.19,494.1Z" transform="translate(-439.09 -491.56)"/></svg>